<?xml version="1.0" standalone="no"?>
<!DOCTYPE svg PUBLIC "-//W3C//DTD SVG 20010904//EN"
 "http://www.w3.org/TR/2001/REC-SVG-20010904/DTD/svg10.dtd">
<svg version="1.0" xmlns="http://www.w3.org/2000/svg"
 width="736.000000pt" height="769.000000pt" viewBox="0 0 736.000000 769.000000"
 preserveAspectRatio="xMidYMid meet">
<metadata>
Created by potrace 1.16, written by Peter Selinger 2001-2019
</metadata>
<g transform="translate(0.000000,769.000000) scale(0.100000,-0.100000)"
fill="#000000" stroke="none">
<path d="M4482 7329 c-717 -95 -1439 -410 -2125 -926 -670 -504 -1243 -1194
-1602 -1928 -400 -816 -516 -1609 -339 -2308 35 -138 83 -264 166 -436 l69
-144 37 6 c52 6 201 68 437 180 512 243 887 477 1210 756 399 346 681 692 872
1076 94 188 119 256 263 715 147 471 332 782 680 1143 441 459 1092 834 1885
1087 178 56 203 64 340 101 66 17 124 35 128 39 20 18 -274 266 -419 353 -103
62 -303 153 -419 192 -134 44 -362 91 -510 105 -176 16 -508 11 -673 -11z"/>
<path d="M6535 6438 c-712 -296 -1230 -616 -1651 -1021 -479 -459 -760 -924
-948 -1568 -115 -396 -216 -625 -387 -878 -214 -317 -588 -679 -934 -903 -437
-282 -1028 -535 -1624 -694 l-144 -38 110 -106 c140 -135 262 -221 443 -314
331 -170 676 -247 1111 -246 282 1 483 28 804 110 658 167 1296 505 1900 1006
162 135 537 508 677 674 478 570 821 1193 997 1815 228 809 167 1561 -174
2138 -25 42 -49 77 -53 76 -4 0 -61 -23 -127 -51z"/>
</g>
</svg>
